CATALOG 0000000000000
FILE "Lemmings for Windows (2001)(Psygnosis)(M5) (Track 1 of 3).bin" BINARY
  TRACK 01 MODE1/2352
    INDEX 01 00:00:00
FILE "Lemmings for Windows (2001)(Psygnosis)(M5) (Track 2 of 3).bin" BINARY
  TRACK 02 MODE1/2352
    INDEX 00 00:00:00
    INDEX 01 00:02:00
FILE "Lemmings for Windows (2001)(Psygnosis)(M5) (Track 3 of 3).bin" BINARY
  TRACK 03 MODE1/2352
    INDEX 00 00:00:00
    INDEX 01 00:02:00
